<svg xmlns="http://www.w3.org/2000/svg" width="36" height="43"><g fill="none" fill-rule="evenodd"><circle cx="18" cy="18" r="18" fill="#6F4E37"/><path fill="#FFF" fill-rule="nonzero" d="M22.743 13.512c.064.22.133.45.21.7.063.226.12.457.183.707.234.968.43 2.069.43 3.081a.631.631 0 0 1-.633.625A.631.631 0 0 1 22.3 18c0-1.131-.279-2.412-.57-3.444h-.006a10.992 10.992 0 0 0-.203-.675c-.076-.256-.152-.481-.215-.668h-.007A18.224 18.224 0 0 0 18.5 13c-.101 0-.209 0-.31.006.07.181.145.388.215.619.063.194.127.4.19.625.291 1.012.538 2.313.538 3.75a.631.631 0 0 1-.633.625.631.631 0 0 1-.633-.625c0-1.438-.285-2.75-.577-3.706-.07-.225-.139-.431-.202-.613a7.99 7.99 0 0 0-.235-.606c-1.127.1-2.185.3-3.128.581.057.181.126.375.202.594.057.188.12.387.184.594.304 1.012.589 2.212.589 3.156a.631.631 0 0 1-.633.625.631.631 0 0 1-.634-.625c0-.781-.247-1.819-.519-2.731-.057-.207-.12-.4-.184-.588-.07-.212-.139-.412-.202-.593C10.362 14.994 9 16.393 9 18c0 2.806 4.174 5 9.5 5s9.5-2.194 9.5-5c0-2-2.115-3.688-5.257-4.488Z"/><path fill="#6F4E37" d="m18.5 40 4.5-5h-9z"/></g></svg>