<svg xmlns="http://www.w3.org/2000/svg" width="24" height="24" viewBox="0 0 24 24">
  <path fill="#FFF" fill-rule="evenodd" d="M9 16.875v1.129c0 .525.218 1.001.566 1.342l1.103 1.103a1.883 1.883 0 0 0 2.662 0l1.103-1.103c.348-.34.566-.817.566-1.342v-.754h-3.338c-.435 0-.787-.338-.787-.75s.352-.75.787-.75h3.435C15.611 12.859 18 11.659 18 8.839 18 5.614 15.315 3 12 3S6 5.614 6 8.839c0 3.184 3 4.309 3 8.036zm3.994-10.5a.752.752 0 0 1-.619-.739c0-.412.338-.76.75-.76.596 0 1.32.423 1.927 1.023.62.615 1.073 1.436 1.073 1.976 0 .412-.338.75-.75.75a.753.753 0 0 1-.739-.619c-.187-.753-.832-1.443-1.642-1.631z"/>
</svg>
