<svg xmlns="http://www.w3.org/2000/svg" width="37" height="44" viewBox="0 0 37 44">
  <g fill="none">
    <path fill="#111" d="M18.5 43.84c1.257 0 2.484-6.965 3.67-7.204C30.63 34.933 37 27.46 37 18.5 37 8.283 28.717 0 18.5 0S0 8.283 0 18.5c0 9.104 6.576 16.672 15.237 18.213 1.06.189 2.15 7.128 3.263 7.128z"/>
    <path fill="#FFF" d="M12.203 7.056c-.636 0-1.273.616-1.273 1.232v6.157c0 1.232 1.273 1.232 1.273 2.463v11.083c0 .616.636 1.232 1.273 1.232h1.272c.637 0 1.273-.616 1.273-1.232V16.908c0-1.231 1.273-1.231 1.273-2.463V8.288c0-.616-.636-1.232-1.273-1.232-.318 0-.318.376-.318.616v4.926c0 .24 0 .616-.318.616s-.318-.376-.318-.616V7.672c0-.24 0-.616-.319-.616h-1.272c-.318 0-.318.376-.318.616v4.926c0 .24 0 .616-.319.616-.318 0-.318-.376-.318-.616V7.672c0-.24 0-.616-.318-.616zm12.727 0c-1.272 0-3.65.29-4.454 1.847-.637 1.232-.637 4.31-.637 5.542v4.926c0 .616.637 1.232 1.273 1.232v7.388c0 .616.636 1.232 1.273 1.232h1.273c.636 0 1.272-.616 1.272-1.232V7.056z"/>
  </g>
</svg>
