<svg xmlns="http://www.w3.org/2000/svg" width="119" height="36" viewBox="0 0 119 36">
  <path fill-rule="evenodd" d="M6.917 13.664H4.033v-.672H7.7v6.067h-.783v-1.916h-.034c-.366 1.193-1.55 1.916-2.783 1.916-1.9 0-3.433-1.26-3.433-5.9 0-5.36 1.566-6.672 3.6-6.672 1.85 0 2.75 1.278 2.9 3.009h-.834c.05-1.21-.683-2.336-1.983-2.336-2.783 0-2.85 3.697-2.85 5.714 0 1.865.067 5.513 2.667 5.513 1.266 0 2.75-.858 2.75-3.748v-.975zm7.116 5.395c-1.9 0-3.566-1.11-3.566-6.286 0-2.756.333-6.286 3.566-6.286 3.534 0 3.517 4.236 3.517 6.286 0 5.143-1.6 6.286-3.517 6.286zM11.3 12.773c0 4.521 1.233 5.614 2.733 5.614 1.6 0 2.684-1.26 2.684-5.614 0-4.504-1.15-5.613-2.684-5.613-1.733 0-2.733 1.445-2.733 5.613zm9.75 6.05v-12.1h3c1.4 0 2.367.773 2.867 1.714.4.74.733 2.134.733 4.336 0 3.076-.75 4.387-.967 4.706-.55.79-1.4 1.345-2.866 1.345H21.05zm.783-11.428v10.756h1.484c1.316 0 2.416-.185 3-1.546.466-1.076.5-2.672.5-3.832 0-1.16-.034-2.907-.55-3.95-.634-1.277-1.684-1.428-2.95-1.428h-1.484zm15.55-.672v.672H32.3v4.874h3.65v.672H32.3v5.21h5.2v.673h-5.983V6.723h5.866zM1.4 35.63v-12.1h2.85c2.017 0 3.183 1.36 3.183 3.327 0 1.53-.85 2.89-2.316 3.361L8.35 35.63h-.983l-2.984-5.227h-2.2v5.227H1.4zm.783-11.428v5.53h1.95c1.067 0 2.467-.824 2.467-2.942 0-1.412-.667-2.588-2.35-2.588H2.183zm15.2-.673v.673H12.3v4.874h3.65v.672H12.3v5.21h5.2v.672h-5.983v-12.1h5.866zm9.734 1.126l-.467.589c-.75-.656-1.6-1.278-2.633-1.278-1.217 0-2.217.84-2.217 2.118 0 .941.417 1.563 1.883 2.47l.984.606c1.9 1.16 2.766 1.848 2.766 3.344 0 2.084-1.35 3.362-3.4 3.362-1.416 0-2.533-.673-3.383-1.782l.6-.487c.633.924 1.633 1.596 2.783 1.596 1.4 0 2.567-1.042 2.567-2.487 0-1.143-.133-1.58-2.35-2.908l-1.117-.672c-1.15-.689-2.166-1.496-2.166-2.958 0-1.815 1.366-2.874 3.1-2.874 1.133 0 2.233.605 3.05 1.361zM37.85 23.53v.673h-3.467V35.63H33.6V24.202h-3.45v-.673h7.7zm6.167-.487l4.016 12.588h-.883l-1.083-3.68h-4.084l-1.1 3.68h-.866l4-12.588zm0 2.151l-1.867 6.084h3.75l-1.883-6.084zM56.35 23.53h.783v8.992c0 2.387-1.8 3.345-3.133 3.345-1.65 0-3.167-1.379-3.167-3.16V23.53h.784v8.589c0 2.302 1.083 3.075 2.383 3.075 1.367 0 2.35-.84 2.35-2.806V23.53zm5.05 12.1v-12.1h2.85c2.017 0 3.183 1.36 3.183 3.327 0 1.53-.85 2.89-2.316 3.361l3.233 5.412h-.983l-2.984-5.227h-2.2v5.227H61.4zm.783-11.428v5.53h1.95c1.067 0 2.467-.824 2.467-2.942 0-1.412-.667-2.588-2.35-2.588h-2.067zm11.834-1.16l4.016 12.588h-.883l-1.083-3.68h-4.084l-1.1 3.68h-.866l4-12.588zm0 2.151l-1.867 6.084h3.75l-1.883-6.084zM86.3 35.748l-4.4-11.126-.033.033V35.63h-.784v-12.1h1.134L86.3 33.9l.033-.034V23.529h.784v12.219H86.3zm11.55-12.219v.673h-3.467V35.63H93.6V24.202h-3.45v-.673h7.7zm9.533 0v.673H102.3v4.874h3.65v.672h-3.65v5.21h5.2v.672h-5.983v-12.1h5.866zM111.4 35.63v-12.1h2.85c2.017 0 3.183 1.36 3.183 3.327 0 1.53-.85 2.89-2.316 3.361l3.233 5.412h-.983l-2.984-5.227h-2.2v5.227h-.783zm.783-11.428h2.067c1.683 0 2.35 1.176 2.35 2.588 0 2.118-1.4 2.941-2.467 2.941h-1.95v-5.53zM1.667 0h35.666v1.345H1.667V0z"/>
</svg>
