<svg xmlns="http://www.w3.org/2000/svg" width="119" height="36" fill="none"><path fill="#111" fill-rule="evenodd" d="M48 0H1v1h47V0ZM8.728 14.452c0 2.266-1.504 3.738-3.821 3.738-2.482 0-4.1-1.885-4.1-4.773 0-2.87 1.618-4.767 4.08-4.767 1.956 0 3.422 1.123 3.752 2.869h-.882c-.381-1.308-1.422-2.063-2.87-2.063-1.935 0-3.192 1.562-3.192 3.961 0 2.406 1.257 3.967 3.212 3.967 1.796 0 2.958-1.136 2.958-2.863v-.317H5.072v-.768h3.656v1.016Zm13.704-1.035c0-2.926-1.58-4.767-4.145-4.767-2.558 0-4.151 1.834-4.151 4.767 0 2.926 1.568 4.773 4.151 4.773 2.577 0 4.145-1.853 4.145-4.773Zm-7.408 0c0-2.425 1.264-3.961 3.263-3.961 2 0 3.256 1.536 3.256 3.961 0 2.412-1.25 3.967-3.256 3.967-2.025 0-3.263-1.555-3.263-3.967ZM46.838 18v-.787h-4.666v-3.517h4.431v-.774h-4.43V9.627h4.665V8.84h-5.535V18h5.535ZM2.044 34h-.87v-9.16h.87v4.736h.076l4.336-4.736H7.54l-3.669 3.955L7.916 34H6.792l-3.523-4.602-1.225 1.333V34Zm16.307-2.806L19.366 34h.914l-3.421-9.16h-.863L12.568 34h.92l1.016-2.806h3.847Zm-3.587-.749 1.619-4.468h.082l1.625 4.468h-3.326ZM26.57 34h-.87v-9.16h5.434v.787H26.57v3.44h4.196v.775H26.57V34Zm10.239 0h.87v-4.158h4.195v-.774h-4.196v-3.44h4.564v-.788H36.81V34Zm16.643-.787V34h-5.536v-9.16h5.536v.787h-4.666v3.295h4.43v.774h-4.43v3.517h4.666ZM59.29 34h3.364c1.987 0 3.123-.94 3.123-2.533 0-1.257-.857-2.126-2.145-2.266v-.082c.97-.172 1.675-.99 1.675-2.019 0-1.39-1.034-2.26-2.723-2.26h-3.294V34Zm.87-5.123v-3.269h2.26c1.25 0 2.012.603 2.012 1.632 0 1.066-.807 1.637-2.222 1.637h-2.05Zm2.374 4.355H60.16v-3.6h2.266c1.593 0 2.462.63 2.462 1.79 0 1.175-.818 1.81-2.354 1.81ZM77.534 34l-1.016-2.806h-3.847L71.656 34h-.92l3.427-9.16h.863L78.448 34h-.914Zm-2.984-8.023-1.618 4.468h3.326l-1.625-4.468h-.083ZM84.738 34v-3.752h2.475L89.321 34h1.015l-2.221-3.891c1.225-.324 1.961-1.295 1.961-2.59 0-1.631-1.142-2.679-2.926-2.679h-3.282V34h.87Zm0-4.526v-3.86h2.304c1.333 0 2.145.73 2.145 1.93 0 1.226-.78 1.93-2.107 1.93h-2.342Zm16.751 3.739V34h-5.535v-9.16h5.535v.787h-4.666v3.295h4.431v.774h-4.43v3.517h4.665Zm6.709-2.965V34h-.87v-9.16h3.282c1.783 0 2.926 1.048 2.926 2.679 0 1.295-.736 2.266-1.961 2.59L113.796 34h-1.015l-2.108-3.752h-2.475Zm2.304-4.633h-2.304v3.86h2.342c1.327 0 2.107-.706 2.107-1.93 0-1.2-.812-1.93-2.145-1.93ZM28.189 8.84h3.015c2.793 0 4.348 1.733 4.348 4.577 0 2.85-1.549 4.583-4.348 4.583H28.19V8.84Zm.87.787v7.586h2.094c2.241 0 3.51-1.422 3.51-3.79 0-2.367-1.275-3.796-3.51-3.796H29.06Z" clip-rule="evenodd"/></svg>