<svg xmlns="http://www.w3.org/2000/svg" width="119" height="36" fill="none"><path fill="#fff" d="M0 0h119v36H0z"/><path fill="#111" fill-rule="evenodd" d="M4.907 18.19c2.317 0 3.821-1.472 3.821-3.738v-1.016H5.072v.768h2.793v.317c0 1.727-1.162 2.863-2.958 2.863-1.955 0-3.212-1.561-3.212-3.967 0-2.4 1.257-3.961 3.193-3.961 1.447 0 2.488.755 2.869 2.063h.882c-.33-1.746-1.796-2.87-3.751-2.87-2.463 0-4.082 1.899-4.082 4.768 0 2.888 1.619 4.773 4.1 4.773Zm13.38-9.54c2.565 0 4.145 1.84 4.145 4.767 0 2.92-1.568 4.773-4.145 4.773-2.583 0-4.151-1.847-4.151-4.773 0-2.933 1.593-4.767 4.151-4.767Zm0 .806c-2 0-3.263 1.536-3.263 3.961 0 2.412 1.238 3.967 3.263 3.967 2.006 0 3.256-1.555 3.256-3.967 0-2.425-1.256-3.961-3.256-3.961Zm28.55 7.757V18h-5.534V8.84h5.535v.787h-4.666v3.295h4.431v.774h-4.43v3.517h4.665ZM29.04 34.19c2.317 0 3.822-1.472 3.822-3.738v-1.016h-3.656v.768h2.793v.317c0 1.727-1.162 2.863-2.959 2.863-1.955 0-3.211-1.561-3.211-3.967 0-2.4 1.256-3.96 3.192-3.96 1.448 0 2.489.754 2.87 2.062h.882c-.33-1.746-1.796-2.87-3.752-2.87-2.462 0-4.081 1.899-4.081 4.768 0 2.888 1.619 4.773 4.1 4.773Zm15.133-.977V34h-5.535v-9.16h5.535v.787h-4.666v3.295h4.431v.774h-4.43v3.517h4.665ZM50.88 34v-3.752h2.475L55.464 34h1.015l-2.221-3.891c1.225-.324 1.961-1.295 1.961-2.59 0-1.631-1.142-2.679-2.926-2.679H50.01V34h.87Zm0-4.526v-3.86h2.304c1.333 0 2.145.73 2.145 1.93 0 1.226-.78 1.93-2.107 1.93h-2.342ZM62.966 34h-.87v-9.16h.87V34Zm11.66 0v-.787h-4.665v-3.517h4.43v-.774h-4.43v-3.295h4.665v-.787h-5.535V34h5.535Zm6.71 0v-3.752h2.475L85.918 34h1.016l-2.222-3.891c1.225-.324 1.962-1.295 1.962-2.59 0-1.631-1.143-2.679-2.927-2.679h-3.281V34h.87Zm2.342-4.526h-2.343v-3.86h2.305c1.332 0 2.145.73 2.145 1.93 0 1.226-.78 1.93-2.107 1.93ZM19.417 34l-1.016-2.806h-3.846L13.539 34h-.92l3.427-9.16h.864L20.33 34h-.914Zm-2.983-8.023-1.62 4.468h3.327l-1.625-4.468h-.082ZM1.174 34H4.54c1.986 0 3.123-.94 3.123-2.533 0-1.257-.857-2.126-2.146-2.266v-.082c.971-.172 1.676-.99 1.676-2.019 0-1.39-1.035-2.26-2.723-2.26H1.174V34Zm.87-5.123v-3.269h2.26c1.25 0 2.012.603 2.012 1.632 0 1.066-.806 1.637-2.222 1.637h-2.05Zm2.374 4.355H2.044v-3.6H4.31c1.593 0 2.463.63 2.463 1.79 0 1.175-.819 1.81-2.355 1.81ZM31.204 8.84H28.19V18h3.015c2.8 0 4.348-1.733 4.348-4.583 0-2.844-1.555-4.577-4.348-4.577Zm-2.145 8.373V9.627h2.094c2.235 0 3.51 1.429 3.51 3.796 0 2.368-1.269 3.79-3.51 3.79H29.06Z" clip-rule="evenodd"/><path fill="#111" d="M1 0h47v1H1V0Z"/></svg>