<svg xmlns="http://www.w3.org/2000/svg" width="24" height="24" viewBox="0 0 24 24">
  <path fill="#FFF" fill-rule="nonzero" d="M17.692 7.298a1.041 1.041 0 1 1-2.083 0 1.041 1.041 0 0 1 2.083 0zM21 12v.013l-.06 3.776a5.21 5.21 0 0 1-5.15 5.151L12 21h-.013l-3.776-.06a5.21 5.21 0 0 1-5.152-5.15L3 12v-.013l.06-3.776a5.211 5.211 0 0 1 5.15-5.152L12 3h.013l3.776.06a5.21 5.21 0 0 1 5.151 5.15L21 12zm-1.676 0l-.06-3.763a3.542 3.542 0 0 0-3.501-3.502L12 4.676l-3.763.06a3.542 3.542 0 0 0-3.502 3.501L4.676 12l.059 3.763a3.542 3.542 0 0 0 3.502 3.502l3.763.059 3.763-.06a3.542 3.542 0 0 0 3.502-3.501L19.324 12zm-2.702 0a4.622 4.622 0 1 1-9.244 0 4.622 4.622 0 0 1 9.244 0zm-1.676 0a2.946 2.946 0 1 0-5.892 0 2.946 2.946 0 0 0 5.892 0z"/>
</svg>
