<svg xmlns="http://www.w3.org/2000/svg" width="24" height="24" viewBox="0 0 24 24">
  <path fill="#FFF" fill-rule="nonzero" d="M7 3c-.5 0-1 .484-1 .968v4.838c0 .967 1 .967 1 1.935v8.708c0 .484.5.968 1 .968h1c.5 0 1-.484 1-.968v-8.708c0-.968 1-.968 1-1.935V3.968C11 3.484 10.5 3 10 3c-.25 0-.25.295-.25.484v3.87c0 .189 0 .484-.25.484s-.25-.295-.25-.484v-3.87C9.25 3.295 9.25 3 9 3H8c-.25 0-.25.295-.25.484v3.87c0 .189 0 .484-.25.484s-.25-.295-.25-.484v-3.87C7.25 3.295 7.25 3 7 3zm11 0c-1 0-2.868.227-3.5 1.451-.5.968-.5 3.387-.5 4.355v3.87c0 .484.5.968 1 .968v5.805c0 .484.5.968 1 .968h1c.5 0 1-.484 1-.968V3z"/>
</svg>
