<svg xmlns="http://www.w3.org/2000/svg" width="24" height="24" viewBox="0 0 24 24">
  <path fill="#FFF" fill-rule="nonzero" d="M8.327 6.205a1.602 1.602 0 1 1 0-3.205 1.602 1.602 0 0 1 0 3.205zm7.325 0a1.602 1.602 0 1 1 0-3.205 1.602 1.602 0 0 1 0 3.205zm4.326 6.89c.092.366-.114.755-.48.847-.069.023-.115.023-.184.023a.708.708 0 0 1-.663-.504L17.483 9.09v1.854l1.305 4.876h-1.305v5.494H16.11v-5.494h-.916v5.494h-1.373v-5.494h-1.305l1.305-4.876V9.09s-1.19 4.44-1.214 4.44a.707.707 0 0 1-.435.413c-.068.023-.114.023-.183.023a.708.708 0 0 1-.664-.504L10.158 9.09v12.224H8.785v-7.096h-.916v7.096H6.495V9.089l-1.167 4.395a.708.708 0 0 1-.664.504c-.069 0-.114 0-.16-.046-.39-.092-.572-.504-.48-.87l1.281-4.83a1.16 1.16 0 0 1 .206-.366 3.822 3.822 0 0 1 1.58-1.007c.389-.138.8-.206 1.236-.206.435 0 .847.068 1.236.228.595.207 1.144.55 1.58 1.008.09.091.16.229.205.366l.641 2.38.641-2.403a1.16 1.16 0 0 1 .206-.366 3.822 3.822 0 0 1 1.58-1.007c.389-.138.801-.206 1.236-.206.435 0 .847.068 1.236.228.595.207 1.145.55 1.58 1.008.091.091.16.229.206.366l1.304 4.83z"/>
</svg>
